<?xml-stylesheet href="../Digital_Logic_Gates.css" type="text/css"?>

<svg id="AND_Gate" width="280" height="308" viewBox="0 0 280 308" fill="none" xmlns="http://www.w3.org/2000/svg">
<path id="Mouth" d="M40.9756 255.837C40.9756 256.008 41.0073 256.155 41.0934 256.302C43.1431 259.814 72.0602 307.317 136.585 307.317C201.111 307.317 230.028 259.814 232.077 256.302C232.163 256.155 232.195 256.008 232.195 255.837V243.874C232.195 242.787 230.471 242.349 229.911 243.28C222.778 255.137 197.638 287.683 136.585 287.683C75.5331 287.683 50.3931 255.137 43.2599 243.28C42.6998 242.349 40.9756 242.787 40.9756 243.874V255.837Z" fill="black"/>
<path d="M40.9756 255.837C40.9756 256.008 41.0073 256.155 41.0934 256.302C43.1431 259.814 72.0602 307.317 136.585 307.317C201.111 307.317 230.028 259.814 232.077 256.302C232.163 256.155 232.195 256.008 232.195 255.837V243.874C232.195 242.787 230.471 242.349 229.911 243.28C222.778 255.137 197.638 287.683 136.585 287.683C75.5331 287.683 50.3931 255.137 43.2599 243.28C42.6998 242.349 40.9756 242.787 40.9756 243.874V255.837Z" stroke="black"/>
<path d="M78 95.3955C78 95.299 77.9889 95.2124 77.9604 95.1202C77.2189 92.7255 66.035 58 41 58C15.965 58 4.78112 92.7255 4.03965 95.1202C4.01111 95.2124 4 95.299 4 95.3955L4 99.2084C4 100.331 6.05838 100.82 6.66155 99.8729C10.9411 93.1533 20.9825 82.2125 41 82.2125C61.0175 82.2125 71.0589 93.1533 75.3385 99.8729C75.9416 100.82 78 100.331 78 99.2084L78 95.3955Z" fill="black"/>
<path d="M78 95.3955C78 95.299 77.9889 95.2124 77.9604 95.1202C77.2189 92.7255 66.035 58 41 58C15.965 58 4.78112 92.7255 4.03965 95.1202C4.01111 95.2124 4 95.299 4 95.3955L4 99.2084C4 100.331 6.05838 100.82 6.66155 99.8729C10.9411 93.1533 20.9825 82.2125 41 82.2125C61.0175 82.2125 71.0589 93.1533 75.3385 99.8729C75.9416 100.82 78 100.331 78 99.2084L78 95.3955Z" stroke="black"/>
<path d="M276 95.3955C276 95.299 275.989 95.2124 275.96 95.1202C275.219 92.7255 264.035 58 239 58C213.965 58 202.781 92.7255 202.04 95.1202C202.011 95.2124 202 95.299 202 95.3955L202 99.2084C202 100.331 204.058 100.82 204.662 99.8729C208.941 93.1533 218.982 82.2125 239 82.2125C259.018 82.2125 269.059 93.1533 273.338 99.8729C273.942 100.82 276 100.331 276 99.2084L276 95.3955Z" fill="black"/>
<path d="M276 95.3955C276 95.299 275.989 95.2124 275.96 95.1202C275.219 92.7255 264.035 58 239 58C213.965 58 202.781 92.7255 202.04 95.1202C202.011 95.2124 202 95.299 202 95.3955L202 99.2084C202 100.331 204.058 100.82 204.662 99.8729C208.941 93.1533 218.982 82.2125 239 82.2125C259.018 82.2125 269.059 93.1533 273.338 99.8729C273.942 100.82 276 100.331 276 99.2084L276 95.3955Z" stroke="black"/>
<ellipse class="Open_Eyes" id="Left_Eye" cx="40.9756" cy="81.9512" rx="40.9756" ry="81.9512" fill="black"/>
<ellipse class="Open_Eyes" id="Right_Eye" cx="239.024" cy="81.9512" rx="40.9756" ry="81.9512" fill="black"/>
<ellipse class="Open_Eyes" id="Right_Highlight" cx="221.951" cy="54.6342" rx="10.2439" ry="20.4878" fill="white"/>
<ellipse class="Open_Eyes" id="Left_Highlight" cx="23.9023" cy="54.6342" rx="10.2439" ry="20.4878" fill="white"/>
</svg>
