<svg width="342" height="378" viewBox="0 0 342 378" fill="none" xmlns="http://www.w3.org/2000/svg">
<g filter="url(#filter0_di)">
<rect x="14" y="226" width="9" height="41" rx="4.5" fill="#C4C4C4"/>
</g>
<g filter="url(#filter1_di)">
<rect x="113" y="226" width="9" height="41" rx="4.5" fill="#C4C4C4"/>
</g>
<g filter="url(#filter2_di)">
<path fill-rule="evenodd" clip-rule="evenodd" d="M97.7105 212.771C88.8556 218 78.5282 221 67.5 221C56.7475 221 46.6611 218.148 37.9562 213.159L22.719 230.893C19.1165 235.086 12.3786 231.195 14.2085 225.979L22.9798 200.975C13.6597 190.472 8 176.647 8 161.5C8 128.639 34.6391 102 67.5 102C100.361 102 127 128.639 127 161.5C127 176.257 121.628 189.758 112.733 200.157L121.792 225.979C123.621 231.195 116.884 235.086 113.281 230.893L97.7105 212.771Z" fill="url(#paint0_linear)"/>
</g>
<g filter="url(#filter3_d)">
<path d="M45.6318 165.177V169H31.2031C31.3594 167.555 31.8281 166.188 32.6094 164.898C33.3906 163.6 34.9336 161.881 37.2383 159.742C39.0938 158.014 40.2314 156.842 40.6514 156.227C41.2178 155.377 41.501 154.537 41.501 153.707C41.501 152.789 41.252 152.086 40.7539 151.598C40.2656 151.1 39.5869 150.851 38.7178 150.851C37.8584 150.851 37.1748 151.109 36.667 151.627C36.1592 152.145 35.8662 153.004 35.7881 154.205L31.6865 153.795C31.9307 151.529 32.6973 149.903 33.9863 148.917C35.2754 147.931 36.8867 147.438 38.8203 147.438C40.9395 147.438 42.6045 148.009 43.8154 149.151C45.0264 150.294 45.6318 151.715 45.6318 153.414C45.6318 154.381 45.4561 155.304 45.1045 156.183C44.7627 157.052 44.2158 157.965 43.4639 158.922C42.9658 159.557 42.0674 160.47 40.7686 161.661C39.4697 162.853 38.6445 163.644 38.293 164.034C37.9512 164.425 37.6729 164.806 37.458 165.177H45.6318ZM62.3311 165.177V169H47.9023C48.0586 167.555 48.5273 166.188 49.3086 164.898C50.0898 163.6 51.6328 161.881 53.9375 159.742C55.793 158.014 56.9307 156.842 57.3506 156.227C57.917 155.377 58.2002 154.537 58.2002 153.707C58.2002 152.789 57.9512 152.086 57.4531 151.598C56.9648 151.1 56.2861 150.851 55.417 150.851C54.5576 150.851 53.874 151.109 53.3662 151.627C52.8584 152.145 52.5654 153.004 52.4873 154.205L48.3857 153.795C48.6299 151.529 49.3965 149.903 50.6855 148.917C51.9746 147.931 53.5859 147.438 55.5195 147.438C57.6387 147.438 59.3037 148.009 60.5146 149.151C61.7256 150.294 62.3311 151.715 62.3311 153.414C62.3311 154.381 62.1553 155.304 61.8037 156.183C61.4619 157.052 60.915 157.965 60.1631 158.922C59.665 159.557 58.7666 160.47 57.4678 161.661C56.1689 162.853 55.3438 163.644 54.9922 164.034C54.6504 164.425 54.3721 164.806 54.1572 165.177H62.3311ZM72.0869 147.438C74.167 147.438 75.793 148.18 76.9648 149.664C78.3613 151.422 79.0596 154.337 79.0596 158.409C79.0596 162.472 78.3564 165.392 76.9502 167.169C75.7881 168.634 74.167 169.366 72.0869 169.366C69.9971 169.366 68.3125 168.565 67.0332 166.964C65.7539 165.353 65.1143 162.486 65.1143 158.365C65.1143 154.322 65.8174 151.412 67.2236 149.635C68.3857 148.17 70.0068 147.438 72.0869 147.438ZM72.0869 150.851C71.5889 150.851 71.1445 151.012 70.7539 151.334C70.3633 151.646 70.0605 152.213 69.8457 153.033C69.5625 154.098 69.4209 155.89 69.4209 158.409C69.4209 160.929 69.5479 162.662 69.8018 163.609C70.0557 164.547 70.373 165.172 70.7539 165.484C71.1445 165.797 71.5889 165.953 72.0869 165.953C72.585 165.953 73.0293 165.797 73.4199 165.484C73.8105 165.162 74.1133 164.591 74.3281 163.771C74.6113 162.716 74.7529 160.929 74.7529 158.409C74.7529 155.89 74.626 154.161 74.3721 153.224C74.1182 152.276 73.7959 151.646 73.4053 151.334C73.0244 151.012 72.585 150.851 72.0869 150.851ZM82.6777 169V147.525H89.167L93.0635 162.174L96.916 147.525H103.42V169H99.3916V152.096L95.1289 169H90.9541L86.7061 152.096V169H82.6777Z" fill="#141414"/>
</g>
<g filter="url(#filter4_ii)">
<path fill-rule="evenodd" clip-rule="evenodd" d="M236 309C236 313.418 239.582 317 244 317H279V376C279 377.105 279.895 378 281 378H296C297.105 378 298 377.105 298 376V317H334C338.418 317 342 313.418 342 309L342 280.262C342 275.844 338.418 272.262 334 272.262H325.263V105.738H334C338.418 105.738 342 102.156 342 97.7379V69C342 64.5817 338.418 61 334 61H298V2C298 0.895416 297.105 0 296 0H281C279.895 0 279 0.895416 279 2V61H244C239.582 61 236 64.5817 236 69V97.7379C236 102.156 239.582 105.738 244 105.738H252.737L252.737 272.262H244C239.582 272.262 236 275.844 236 280.262L236 309Z" fill="#1E1E1E"/>
</g>
<g filter="url(#filter5_di)">
<rect x="255" y="106" width="68" height="18" rx="3" fill="#D60915"/>
</g>
<g filter="url(#filter6_di)">
<rect x="255" y="139" width="68" height="18" rx="3" fill="#D6551A"/>
</g>
<g filter="url(#filter7_di)">
<rect x="255" y="205" width="68" height="18" rx="3" fill="#7F7F7F"/>
</g>
<g filter="url(#filter8_di)">
<rect x="255" y="255" width="68" height="18" rx="3" fill="#562906"/>
</g>
<g filter="url(#filter9_di)">
<rect x="255" y="172" width="68" height="18" rx="3" fill="#111111"/>
</g>
<g filter="url(#filter10_d)">
<path d="M281.026 119V112.2H284.041C284.647 112.2 285.108 112.262 285.424 112.385C285.739 112.506 285.991 112.721 286.18 113.03C286.368 113.339 286.463 113.681 286.463 114.055C286.463 114.538 286.306 114.944 285.994 115.275C285.682 115.606 285.199 115.816 284.547 115.906C284.785 116.02 284.966 116.133 285.09 116.245C285.352 116.486 285.601 116.787 285.836 117.149L287.019 119H285.887L284.988 117.585C284.725 117.177 284.508 116.865 284.338 116.648C284.168 116.432 284.015 116.28 283.879 116.194C283.746 116.107 283.61 116.047 283.471 116.013C283.369 115.991 283.202 115.98 282.97 115.98H281.926V119H281.026ZM281.926 115.201H283.86C284.272 115.201 284.593 115.159 284.825 115.076C285.057 114.989 285.233 114.853 285.354 114.667C285.475 114.479 285.535 114.275 285.535 114.055C285.535 113.734 285.417 113.469 285.182 113.262C284.95 113.055 284.582 112.951 284.078 112.951H281.926V115.201ZM291.143 117.414L292.006 117.52C291.87 118.024 291.618 118.416 291.25 118.694C290.882 118.972 290.412 119.111 289.84 119.111C289.119 119.111 288.547 118.89 288.123 118.448C287.703 118.003 287.492 117.38 287.492 116.579C287.492 115.75 287.706 115.107 288.133 114.649C288.559 114.191 289.113 113.962 289.793 113.962C290.452 113.962 290.99 114.187 291.407 114.635C291.825 115.083 292.034 115.714 292.034 116.528C292.034 116.577 292.032 116.651 292.029 116.75H288.355C288.386 117.291 288.539 117.706 288.814 117.993C289.09 118.281 289.433 118.425 289.844 118.425C290.15 118.425 290.412 118.344 290.628 118.184C290.845 118.023 291.016 117.766 291.143 117.414ZM288.402 116.064H291.152C291.115 115.649 291.01 115.339 290.837 115.131C290.571 114.81 290.226 114.649 289.802 114.649C289.419 114.649 289.096 114.777 288.833 115.034C288.573 115.291 288.429 115.634 288.402 116.064ZM296.255 119V118.378C295.943 118.867 295.483 119.111 294.877 119.111C294.484 119.111 294.123 119.003 293.792 118.787C293.464 118.57 293.209 118.269 293.026 117.882C292.847 117.492 292.757 117.046 292.757 116.542C292.757 116.05 292.839 115.604 293.003 115.206C293.167 114.804 293.413 114.496 293.741 114.282C294.069 114.069 294.435 113.962 294.84 113.962C295.137 113.962 295.401 114.026 295.633 114.153C295.865 114.276 296.054 114.439 296.199 114.64V112.2H297.03V119H296.255ZM293.615 116.542C293.615 117.172 293.748 117.644 294.014 117.956C294.28 118.269 294.594 118.425 294.956 118.425C295.321 118.425 295.63 118.276 295.884 117.979C296.14 117.68 296.269 117.223 296.269 116.611C296.269 115.937 296.139 115.442 295.879 115.127C295.619 114.811 295.299 114.654 294.919 114.654C294.548 114.654 294.237 114.805 293.987 115.108C293.739 115.411 293.615 115.889 293.615 116.542Z" fill="white"/>
</g>
<g filter="url(#filter11_d)">
<path d="M273.604 148.688C273.604 147.559 273.907 146.676 274.513 146.039C275.12 145.399 275.902 145.079 276.861 145.079C277.488 145.079 278.054 145.229 278.558 145.529C279.062 145.829 279.446 146.248 279.709 146.786C279.975 147.321 280.108 147.929 280.108 148.609C280.108 149.299 279.969 149.916 279.69 150.46C279.412 151.004 279.018 151.417 278.507 151.698C277.997 151.977 277.447 152.116 276.856 152.116C276.216 152.116 275.644 151.961 275.14 151.652C274.636 151.343 274.254 150.921 273.994 150.386C273.734 149.851 273.604 149.285 273.604 148.688ZM274.532 148.702C274.532 149.521 274.752 150.168 275.191 150.641C275.633 151.111 276.186 151.346 276.851 151.346C277.529 151.346 278.085 151.108 278.521 150.632C278.96 150.155 279.18 149.48 279.18 148.604C279.18 148.051 279.086 147.569 278.897 147.157C278.711 146.743 278.438 146.423 278.076 146.197C277.717 145.968 277.314 145.854 276.865 145.854C276.228 145.854 275.679 146.073 275.219 146.512C274.761 146.948 274.532 147.678 274.532 148.702ZM281.156 152V147.074H281.907V147.821C282.099 147.471 282.275 147.241 282.436 147.129C282.6 147.018 282.78 146.962 282.974 146.962C283.256 146.962 283.542 147.052 283.833 147.231L283.545 148.006C283.341 147.885 283.137 147.825 282.933 147.825C282.75 147.825 282.586 147.881 282.441 147.992C282.296 148.1 282.192 148.252 282.13 148.447C282.037 148.744 281.991 149.068 281.991 149.421V152H281.156ZM287.543 151.392C287.234 151.655 286.936 151.841 286.648 151.949C286.364 152.057 286.058 152.111 285.73 152.111C285.189 152.111 284.773 151.98 284.482 151.717C284.191 151.451 284.046 151.112 284.046 150.701C284.046 150.46 284.1 150.24 284.208 150.042C284.32 149.841 284.463 149.681 284.64 149.56C284.819 149.439 285.02 149.348 285.243 149.286C285.407 149.243 285.654 149.201 285.985 149.161C286.659 149.081 287.155 148.985 287.474 148.874C287.477 148.759 287.479 148.686 287.479 148.656C287.479 148.315 287.4 148.076 287.242 147.937C287.029 147.748 286.712 147.654 286.291 147.654C285.898 147.654 285.608 147.723 285.419 147.862C285.233 147.998 285.096 148.241 285.006 148.591L284.19 148.479C284.264 148.13 284.386 147.848 284.556 147.635C284.726 147.419 284.972 147.253 285.294 147.139C285.615 147.021 285.988 146.962 286.412 146.962C286.832 146.962 287.174 147.012 287.437 147.111C287.7 147.21 287.893 147.335 288.017 147.487C288.14 147.635 288.227 147.824 288.276 148.052C288.304 148.195 288.318 148.451 288.318 148.823V149.936C288.318 150.712 288.335 151.204 288.369 151.411C288.406 151.615 288.477 151.811 288.583 152H287.71C287.624 151.827 287.568 151.624 287.543 151.392ZM287.474 149.528C287.171 149.651 286.716 149.756 286.11 149.843C285.767 149.892 285.524 149.948 285.382 150.01C285.24 150.072 285.13 150.163 285.052 150.284C284.975 150.401 284.937 150.533 284.937 150.678C284.937 150.901 285.02 151.086 285.187 151.235C285.357 151.383 285.604 151.457 285.929 151.457C286.251 151.457 286.537 151.388 286.787 151.249C287.038 151.106 287.222 150.913 287.339 150.669C287.429 150.48 287.474 150.202 287.474 149.834V149.528ZM289.617 152V147.074H290.368V147.774C290.73 147.233 291.253 146.962 291.936 146.962C292.233 146.962 292.505 147.017 292.753 147.125C293.003 147.23 293.19 147.369 293.314 147.542C293.438 147.715 293.524 147.921 293.574 148.159C293.605 148.314 293.62 148.584 293.62 148.971V152H292.785V149.003C292.785 148.663 292.753 148.41 292.688 148.243C292.623 148.073 292.507 147.938 292.34 147.839C292.176 147.737 291.983 147.686 291.76 147.686C291.404 147.686 291.097 147.799 290.837 148.025C290.58 148.25 290.452 148.679 290.452 149.31V152H289.617ZM294.752 152.408L295.564 152.529C295.598 152.779 295.692 152.962 295.847 153.076C296.054 153.231 296.337 153.308 296.696 153.308C297.082 153.308 297.381 153.231 297.591 153.076C297.801 152.922 297.943 152.705 298.018 152.427C298.061 152.257 298.081 151.899 298.078 151.355C297.713 151.785 297.258 152 296.714 152C296.037 152 295.513 151.756 295.142 151.267C294.771 150.778 294.585 150.192 294.585 149.509C294.585 149.039 294.67 148.606 294.84 148.21C295.01 147.811 295.256 147.504 295.578 147.287C295.902 147.071 296.283 146.962 296.719 146.962C297.3 146.962 297.779 147.197 298.157 147.667V147.074H298.927V151.332C298.927 152.099 298.848 152.642 298.69 152.96C298.536 153.282 298.288 153.535 297.948 153.721C297.611 153.906 297.195 153.999 296.7 153.999C296.113 153.999 295.638 153.866 295.276 153.6C294.914 153.337 294.74 152.94 294.752 152.408ZM295.443 149.449C295.443 150.095 295.571 150.567 295.828 150.864C296.085 151.16 296.406 151.309 296.793 151.309C297.176 151.309 297.498 151.162 297.758 150.868C298.018 150.571 298.147 150.107 298.147 149.477C298.147 148.874 298.013 148.419 297.744 148.113C297.478 147.807 297.156 147.654 296.779 147.654C296.408 147.654 296.093 147.805 295.833 148.108C295.573 148.408 295.443 148.855 295.443 149.449ZM303.565 150.414L304.428 150.52C304.292 151.024 304.04 151.416 303.672 151.694C303.304 151.972 302.834 152.111 302.262 152.111C301.541 152.111 300.969 151.89 300.546 151.448C300.125 151.003 299.915 150.38 299.915 149.579C299.915 148.75 300.128 148.107 300.555 147.649C300.982 147.191 301.535 146.962 302.216 146.962C302.874 146.962 303.412 147.187 303.83 147.635C304.247 148.083 304.456 148.714 304.456 149.528C304.456 149.577 304.455 149.651 304.451 149.75H300.778C300.809 150.291 300.962 150.706 301.237 150.993C301.512 151.281 301.855 151.425 302.267 151.425C302.573 151.425 302.834 151.344 303.051 151.184C303.267 151.023 303.439 150.766 303.565 150.414ZM300.824 149.064H303.575C303.538 148.649 303.432 148.339 303.259 148.131C302.993 147.81 302.649 147.649 302.225 147.649C301.841 147.649 301.518 147.777 301.255 148.034C300.996 148.291 300.852 148.634 300.824 149.064Z" fill="white"/>
</g>
<g filter="url(#filter12_d)">
<path d="M278.076 185V178.2H280.627C281.147 178.2 281.563 178.269 281.875 178.408C282.19 178.545 282.436 178.756 282.613 179.044C282.792 179.328 282.882 179.627 282.882 179.939C282.882 180.23 282.803 180.504 282.645 180.76C282.487 181.017 282.249 181.224 281.931 181.382C282.342 181.502 282.657 181.708 282.877 181.999C283.1 182.289 283.211 182.633 283.211 183.029C283.211 183.347 283.143 183.644 283.007 183.919C282.874 184.191 282.708 184.402 282.51 184.55C282.313 184.698 282.064 184.811 281.764 184.889C281.467 184.963 281.102 185 280.669 185H278.076ZM278.976 181.057H280.446C280.845 181.057 281.131 181.031 281.304 180.978C281.533 180.91 281.705 180.797 281.819 180.64C281.937 180.482 281.996 180.284 281.996 180.046C281.996 179.82 281.941 179.622 281.833 179.452C281.725 179.279 281.57 179.161 281.369 179.1C281.168 179.035 280.824 179.002 280.335 179.002H278.976V181.057ZM278.976 184.198H280.669C280.96 184.198 281.164 184.187 281.281 184.165C281.488 184.128 281.662 184.066 281.801 183.979C281.94 183.893 282.054 183.768 282.144 183.604C282.234 183.437 282.279 183.245 282.279 183.029C282.279 182.775 282.214 182.555 282.084 182.37C281.954 182.181 281.773 182.05 281.541 181.976C281.312 181.898 280.981 181.86 280.548 181.86H278.976V184.198ZM284.324 185V178.2H285.159V185H284.324ZM289.673 184.392C289.363 184.655 289.065 184.841 288.777 184.949C288.493 185.057 288.187 185.111 287.859 185.111C287.318 185.111 286.902 184.98 286.611 184.717C286.32 184.451 286.175 184.112 286.175 183.701C286.175 183.46 286.229 183.24 286.337 183.042C286.449 182.841 286.593 182.681 286.769 182.56C286.948 182.439 287.149 182.348 287.372 182.286C287.536 182.243 287.783 182.201 288.114 182.161C288.788 182.081 289.285 181.985 289.603 181.874C289.606 181.759 289.608 181.686 289.608 181.656C289.608 181.315 289.529 181.076 289.371 180.937C289.158 180.748 288.841 180.654 288.42 180.654C288.027 180.654 287.737 180.723 287.548 180.862C287.363 180.998 287.225 181.241 287.135 181.591L286.319 181.479C286.393 181.13 286.515 180.848 286.685 180.635C286.855 180.419 287.101 180.253 287.423 180.139C287.744 180.021 288.117 179.962 288.541 179.962C288.961 179.962 289.303 180.012 289.566 180.111C289.829 180.21 290.022 180.335 290.146 180.487C290.269 180.635 290.356 180.824 290.406 181.052C290.433 181.195 290.447 181.451 290.447 181.823V182.936C290.447 183.712 290.464 184.204 290.498 184.411C290.535 184.615 290.607 184.811 290.712 185H289.84C289.753 184.827 289.697 184.624 289.673 184.392ZM289.603 182.528C289.3 182.651 288.845 182.756 288.239 182.843C287.896 182.892 287.653 182.948 287.511 183.01C287.369 183.072 287.259 183.163 287.182 183.284C287.104 183.401 287.066 183.533 287.066 183.678C287.066 183.901 287.149 184.086 287.316 184.235C287.486 184.383 287.734 184.457 288.058 184.457C288.38 184.457 288.666 184.388 288.917 184.249C289.167 184.106 289.351 183.913 289.469 183.669C289.558 183.48 289.603 183.202 289.603 182.834V182.528ZM294.961 183.196L295.782 183.302C295.692 183.868 295.462 184.312 295.091 184.634C294.723 184.952 294.27 185.111 293.731 185.111C293.057 185.111 292.515 184.892 292.103 184.453C291.695 184.01 291.491 183.378 291.491 182.555C291.491 182.024 291.579 181.558 291.755 181.159C291.932 180.76 292.199 180.462 292.558 180.264C292.92 180.063 293.312 179.962 293.736 179.962C294.271 179.962 294.709 180.098 295.049 180.371C295.389 180.64 295.607 181.023 295.703 181.521L294.891 181.646C294.814 181.315 294.676 181.066 294.478 180.899C294.283 180.732 294.047 180.649 293.769 180.649C293.348 180.649 293.006 180.8 292.743 181.104C292.481 181.403 292.349 181.88 292.349 182.532C292.349 183.194 292.476 183.675 292.729 183.975C292.983 184.275 293.314 184.425 293.722 184.425C294.05 184.425 294.324 184.324 294.543 184.123C294.763 183.922 294.902 183.613 294.961 183.196ZM296.501 185V178.2H297.336V182.078L299.312 180.074H300.393L298.509 181.901L300.583 185H299.553L297.925 182.481L297.336 183.047V185H296.501Z" fill="white"/>
</g>
<g filter="url(#filter13_d)">
<path d="M277.542 215.815L278.391 215.741C278.432 216.081 278.524 216.361 278.67 216.581C278.818 216.797 279.047 216.973 279.356 217.109C279.665 217.242 280.013 217.309 280.4 217.309C280.743 217.309 281.046 217.258 281.309 217.156C281.572 217.054 281.767 216.915 281.894 216.738C282.023 216.559 282.088 216.364 282.088 216.154C282.088 215.94 282.027 215.755 281.903 215.597C281.779 215.436 281.575 215.302 281.291 215.194C281.108 215.122 280.705 215.013 280.08 214.864C279.455 214.713 279.018 214.57 278.767 214.438C278.442 214.267 278.2 214.057 278.039 213.807C277.881 213.553 277.802 213.27 277.802 212.958C277.802 212.615 277.9 212.294 278.094 211.998C278.289 211.698 278.574 211.47 278.948 211.316C279.322 211.161 279.738 211.084 280.196 211.084C280.7 211.084 281.144 211.166 281.527 211.33C281.914 211.49 282.211 211.729 282.418 212.044C282.625 212.359 282.736 212.717 282.752 213.115L281.889 213.18C281.843 212.751 281.685 212.426 281.416 212.206C281.15 211.987 280.756 211.877 280.233 211.877C279.689 211.877 279.291 211.977 279.041 212.178C278.793 212.376 278.67 212.616 278.67 212.897C278.67 213.142 278.758 213.343 278.934 213.5C279.107 213.658 279.559 213.821 280.289 213.988C281.021 214.151 281.524 214.295 281.796 214.419C282.192 214.601 282.484 214.833 282.673 215.115C282.861 215.393 282.956 215.715 282.956 216.08C282.956 216.441 282.852 216.783 282.645 217.105C282.438 217.423 282.139 217.672 281.75 217.852C281.363 218.028 280.927 218.116 280.442 218.116C279.826 218.116 279.31 218.026 278.892 217.847C278.478 217.668 278.152 217.399 277.914 217.04C277.679 216.678 277.555 216.27 277.542 215.815ZM284.083 212.16V211.2H284.918V212.16H284.083ZM284.083 218V213.074H284.918V218H284.083ZM286.175 218V211.2H287.01V218H286.175ZM289.677 218L287.803 213.074H288.685L289.742 216.024C289.857 216.342 289.962 216.673 290.058 217.017C290.132 216.757 290.235 216.444 290.368 216.08L291.463 213.074H292.321L290.457 218H289.677ZM296.431 216.414L297.294 216.52C297.158 217.024 296.906 217.416 296.538 217.694C296.17 217.972 295.7 218.111 295.128 218.111C294.407 218.111 293.835 217.89 293.411 217.448C292.991 217.003 292.781 216.38 292.781 215.579C292.781 214.75 292.994 214.107 293.421 213.649C293.847 213.191 294.401 212.962 295.081 212.962C295.74 212.962 296.278 213.187 296.696 213.635C297.113 214.083 297.322 214.714 297.322 215.528C297.322 215.577 297.32 215.651 297.317 215.75H293.643C293.674 216.291 293.827 216.706 294.103 216.993C294.378 217.281 294.721 217.425 295.132 217.425C295.438 217.425 295.7 217.344 295.916 217.184C296.133 217.023 296.304 216.766 296.431 216.414ZM293.69 215.064H296.44C296.403 214.649 296.298 214.339 296.125 214.131C295.859 213.81 295.514 213.649 295.091 213.649C294.707 213.649 294.384 213.777 294.121 214.034C293.861 214.291 293.718 214.634 293.69 215.064ZM298.338 218V213.074H299.089V213.821C299.281 213.471 299.457 213.241 299.618 213.129C299.782 213.018 299.961 212.962 300.156 212.962C300.437 212.962 300.723 213.052 301.014 213.231L300.727 214.006C300.522 213.885 300.318 213.825 300.114 213.825C299.932 213.825 299.768 213.881 299.623 213.992C299.477 214.1 299.374 214.252 299.312 214.447C299.219 214.744 299.173 215.068 299.173 215.421V218H298.338Z" fill="white"/>
</g>
<g filter="url(#filter14_d)">
<path d="M276.725 268V261.2H279.276C279.796 261.2 280.212 261.269 280.524 261.408C280.84 261.545 281.085 261.756 281.262 262.044C281.441 262.328 281.531 262.627 281.531 262.939C281.531 263.23 281.452 263.504 281.294 263.76C281.136 264.017 280.898 264.224 280.58 264.382C280.991 264.502 281.307 264.708 281.526 264.999C281.749 265.289 281.86 265.633 281.86 266.029C281.86 266.347 281.792 266.644 281.656 266.919C281.523 267.191 281.358 267.402 281.16 267.55C280.962 267.698 280.713 267.811 280.413 267.889C280.116 267.963 279.751 268 279.318 268H276.725ZM277.625 264.057H279.095C279.494 264.057 279.78 264.031 279.954 263.978C280.182 263.91 280.354 263.797 280.469 263.64C280.586 263.482 280.645 263.284 280.645 263.046C280.645 262.82 280.591 262.622 280.482 262.452C280.374 262.279 280.22 262.161 280.019 262.1C279.818 262.035 279.473 262.002 278.984 262.002H277.625V264.057ZM277.625 267.198H279.318C279.609 267.198 279.813 267.187 279.93 267.165C280.138 267.128 280.311 267.066 280.45 266.979C280.589 266.893 280.704 266.768 280.793 266.604C280.883 266.437 280.928 266.245 280.928 266.029C280.928 265.775 280.863 265.555 280.733 265.37C280.603 265.181 280.422 265.05 280.19 264.976C279.961 264.898 279.63 264.86 279.198 264.86H277.625V267.198ZM282.983 268V263.074H283.734V263.821C283.926 263.471 284.102 263.241 284.263 263.129C284.427 263.018 284.606 262.962 284.801 262.962C285.082 262.962 285.368 263.052 285.659 263.231L285.372 264.006C285.167 263.885 284.963 263.825 284.759 263.825C284.577 263.825 284.413 263.881 284.268 263.992C284.122 264.1 284.019 264.252 283.957 264.447C283.864 264.744 283.818 265.068 283.818 265.421V268H282.983ZM285.845 265.537C285.845 264.625 286.098 263.949 286.605 263.51C287.029 263.145 287.546 262.962 288.155 262.962C288.832 262.962 289.386 263.185 289.815 263.63C290.245 264.073 290.46 264.685 290.46 265.467C290.46 266.101 290.364 266.601 290.173 266.966C289.984 267.327 289.707 267.609 289.342 267.81C288.98 268.011 288.585 268.111 288.155 268.111C287.465 268.111 286.907 267.89 286.48 267.448C286.057 267.006 285.845 266.369 285.845 265.537ZM286.703 265.537C286.703 266.168 286.84 266.641 287.116 266.956C287.391 267.269 287.737 267.425 288.155 267.425C288.569 267.425 288.914 267.267 289.189 266.952C289.464 266.636 289.602 266.155 289.602 265.509C289.602 264.9 289.463 264.439 289.185 264.127C288.909 263.811 288.566 263.654 288.155 263.654C287.737 263.654 287.391 263.81 287.116 264.122C286.84 264.434 286.703 264.906 286.703 265.537ZM292.353 268L290.845 263.074H291.708L292.492 265.917L292.784 266.975C292.797 266.922 292.882 266.584 293.039 265.959L293.823 263.074H294.681L295.419 265.931L295.665 266.873L295.948 265.922L296.792 263.074H297.604L296.064 268H295.196L294.412 265.05L294.222 264.21L293.225 268H292.353ZM298.309 268V263.074H299.06V263.774C299.422 263.233 299.945 262.962 300.628 262.962C300.925 262.962 301.197 263.017 301.445 263.125C301.695 263.23 301.882 263.369 302.006 263.542C302.13 263.715 302.216 263.921 302.266 264.159C302.297 264.314 302.312 264.584 302.312 264.971V268H301.477V265.003C301.477 264.663 301.445 264.41 301.38 264.243C301.315 264.073 301.199 263.938 301.032 263.839C300.868 263.737 300.675 263.686 300.452 263.686C300.096 263.686 299.789 263.799 299.529 264.025C299.272 264.25 299.144 264.679 299.144 265.31V268H298.309Z" fill="white"/>
</g>
<g filter="url(#filter15_ii)">
<path fill-rule="evenodd" clip-rule="evenodd" d="M236 309C236 313.418 239.582 317 244 317H279V376C279 377.105 279.895 378 281 378H296C297.105 378 298 377.105 298 376V317H334C338.418 317 342 313.418 342 309V280.262C342 275.844 338.418 272.262 334 272.262H325.263L325.263 105.738H334C338.418 105.738 342 102.156 342 97.7379V69C342 64.5817 338.418 61 334 61H298V2C298 0.895416 297.105 0 296 0H281C279.895 0 279 0.895416 279 2V61H244C239.582 61 236 64.5817 236 69V97.7379C236 102.156 239.582 105.738 244 105.738H252.737L252.737 272.262H244C239.582 272.262 236 275.844 236 280.262V309Z" fill="#1E1E1E"/>
</g>
<g filter="url(#filter16_di)">
<rect x="255" y="106" width="68" height="18" rx="3" fill="#D60915"/>
</g>
<g filter="url(#filter17_di)">
<rect x="255" y="139" width="68" height="18" rx="3" fill="#D6551A"/>
</g>
<g filter="url(#filter18_di)">
<rect x="255" y="205" width="68" height="18" rx="3" fill="#7F7F7F"/>
</g>
<g filter="url(#filter19_di)">
<rect x="255" y="255" width="68" height="18" rx="3" fill="#562906"/>
</g>
<g filter="url(#filter20_di)">
<rect x="255" y="172" width="68" height="18" rx="3" fill="#111111"/>
</g>
<g filter="url(#filter21_d)">
<path d="M281.026 119V112.2H284.041C284.647 112.2 285.108 112.262 285.424 112.385C285.739 112.506 285.991 112.721 286.18 113.03C286.368 113.339 286.463 113.681 286.463 114.055C286.463 114.538 286.306 114.944 285.994 115.275C285.682 115.606 285.199 115.816 284.547 115.906C284.785 116.02 284.966 116.133 285.09 116.245C285.352 116.486 285.601 116.787 285.836 117.149L287.019 119H285.887L284.988 117.585C284.725 117.177 284.508 116.865 284.338 116.648C284.168 116.432 284.015 116.28 283.879 116.194C283.746 116.107 283.61 116.047 283.471 116.013C283.369 115.991 283.202 115.98 282.97 115.98H281.926V119H281.026ZM281.926 115.201H283.86C284.272 115.201 284.593 115.159 284.825 115.076C285.057 114.989 285.233 114.853 285.354 114.667C285.475 114.479 285.535 114.275 285.535 114.055C285.535 113.734 285.417 113.469 285.182 113.262C284.95 113.055 284.582 112.951 284.078 112.951H281.926V115.201ZM291.143 117.414L292.006 117.52C291.87 118.024 291.618 118.416 291.25 118.694C290.882 118.972 290.412 119.111 289.84 119.111C289.119 119.111 288.547 118.89 288.123 118.448C287.703 118.003 287.492 117.38 287.492 116.579C287.492 115.75 287.706 115.107 288.133 114.649C288.559 114.191 289.113 113.962 289.793 113.962C290.452 113.962 290.99 114.187 291.407 114.635C291.825 115.083 292.034 115.714 292.034 116.528C292.034 116.577 292.032 116.651 292.029 116.75H288.355C288.386 117.291 288.539 117.706 288.814 117.993C289.09 118.281 289.433 118.425 289.844 118.425C290.15 118.425 290.412 118.344 290.628 118.184C290.845 118.023 291.016 117.766 291.143 117.414ZM288.402 116.064H291.152C291.115 115.649 291.01 115.339 290.837 115.131C290.571 114.81 290.226 114.649 289.802 114.649C289.419 114.649 289.096 114.777 288.833 115.034C288.573 115.291 288.429 115.634 288.402 116.064ZM296.255 119V118.378C295.943 118.867 295.483 119.111 294.877 119.111C294.484 119.111 294.123 119.003 293.792 118.787C293.464 118.57 293.209 118.269 293.026 117.882C292.847 117.492 292.757 117.046 292.757 116.542C292.757 116.05 292.839 115.604 293.003 115.206C293.167 114.804 293.413 114.496 293.741 114.282C294.069 114.069 294.435 113.962 294.84 113.962C295.137 113.962 295.401 114.026 295.633 114.153C295.865 114.276 296.054 114.439 296.199 114.64V112.2H297.03V119H296.255ZM293.615 116.542C293.615 117.172 293.748 117.644 294.014 117.956C294.28 118.269 294.594 118.425 294.956 118.425C295.321 118.425 295.63 118.276 295.884 117.979C296.14 117.68 296.269 117.223 296.269 116.611C296.269 115.937 296.139 115.442 295.879 115.127C295.619 114.811 295.299 114.654 294.919 114.654C294.548 114.654 294.237 114.805 293.987 115.108C293.739 115.411 293.615 115.889 293.615 116.542Z" fill="white"/>
</g>
<g filter="url(#filter22_d)">
<path d="M273.604 148.688C273.604 147.559 273.907 146.676 274.513 146.039C275.12 145.399 275.902 145.079 276.861 145.079C277.488 145.079 278.054 145.229 278.558 145.529C279.062 145.829 279.446 146.248 279.709 146.786C279.975 147.321 280.108 147.929 280.108 148.609C280.108 149.299 279.969 149.916 279.69 150.46C279.412 151.004 279.018 151.417 278.507 151.698C277.997 151.977 277.447 152.116 276.856 152.116C276.216 152.116 275.644 151.961 275.14 151.652C274.636 151.343 274.254 150.921 273.994 150.386C273.734 149.851 273.604 149.285 273.604 148.688ZM274.532 148.702C274.532 149.521 274.752 150.168 275.191 150.641C275.633 151.111 276.186 151.346 276.851 151.346C277.529 151.346 278.085 151.108 278.521 150.632C278.96 150.155 279.18 149.48 279.18 148.604C279.18 148.051 279.086 147.569 278.897 147.157C278.711 146.743 278.438 146.423 278.076 146.197C277.717 145.968 277.314 145.854 276.865 145.854C276.228 145.854 275.679 146.073 275.219 146.512C274.761 146.948 274.532 147.678 274.532 148.702ZM281.156 152V147.074H281.907V147.821C282.099 147.471 282.275 147.241 282.436 147.129C282.6 147.018 282.78 146.962 282.974 146.962C283.256 146.962 283.542 147.052 283.833 147.231L283.545 148.006C283.341 147.885 283.137 147.825 282.933 147.825C282.75 147.825 282.586 147.881 282.441 147.992C282.296 148.1 282.192 148.252 282.13 148.447C282.037 148.744 281.991 149.068 281.991 149.421V152H281.156ZM287.543 151.392C287.234 151.655 286.936 151.841 286.648 151.949C286.364 152.057 286.058 152.111 285.73 152.111C285.189 152.111 284.773 151.98 284.482 151.717C284.191 151.451 284.046 151.112 284.046 150.701C284.046 150.46 284.1 150.24 284.208 150.042C284.32 149.841 284.463 149.681 284.64 149.56C284.819 149.439 285.02 149.348 285.243 149.286C285.407 149.243 285.654 149.201 285.985 149.161C286.659 149.081 287.155 148.985 287.474 148.874C287.477 148.759 287.479 148.686 287.479 148.656C287.479 148.315 287.4 148.076 287.242 147.937C287.029 147.748 286.712 147.654 286.291 147.654C285.898 147.654 285.608 147.723 285.419 147.862C285.233 147.998 285.096 148.241 285.006 148.591L284.19 148.479C284.264 148.13 284.386 147.848 284.556 147.635C284.726 147.419 284.972 147.253 285.294 147.139C285.615 147.021 285.988 146.962 286.412 146.962C286.832 146.962 287.174 147.012 287.437 147.111C287.7 147.21 287.893 147.335 288.017 147.487C288.14 147.635 288.227 147.824 288.276 148.052C288.304 148.195 288.318 148.451 288.318 148.823V149.936C288.318 150.712 288.335 151.204 288.369 151.411C288.406 151.615 288.477 151.811 288.583 152H287.71C287.624 151.827 287.568 151.624 287.543 151.392ZM287.474 149.528C287.171 149.651 286.716 149.756 286.11 149.843C285.767 149.892 285.524 149.948 285.382 150.01C285.24 150.072 285.13 150.163 285.052 150.284C284.975 150.401 284.937 150.533 284.937 150.678C284.937 150.901 285.02 151.086 285.187 151.235C285.357 151.383 285.604 151.457 285.929 151.457C286.251 151.457 286.537 151.388 286.787 151.249C287.038 151.106 287.222 150.913 287.339 150.669C287.429 150.48 287.474 150.202 287.474 149.834V149.528ZM289.617 152V147.074H290.368V147.774C290.73 147.233 291.253 146.962 291.936 146.962C292.233 146.962 292.505 147.017 292.753 147.125C293.003 147.23 293.19 147.369 293.314 147.542C293.438 147.715 293.524 147.921 293.574 148.159C293.605 148.314 293.62 148.584 293.62 148.971V152H292.785V149.003C292.785 148.663 292.753 148.41 292.688 148.243C292.623 148.073 292.507 147.938 292.34 147.839C292.176 147.737 291.983 147.686 291.76 147.686C291.404 147.686 291.097 147.799 290.837 148.025C290.58 148.25 290.452 148.679 290.452 149.31V152H289.617ZM294.752 152.408L295.564 152.529C295.598 152.779 295.692 152.962 295.847 153.076C296.054 153.231 296.337 153.308 296.696 153.308C297.082 153.308 297.381 153.231 297.591 153.076C297.801 152.922 297.943 152.705 298.018 152.427C298.061 152.257 298.081 151.899 298.078 151.355C297.713 151.785 297.258 152 296.714 152C296.037 152 295.513 151.756 295.142 151.267C294.771 150.778 294.585 150.192 294.585 149.509C294.585 149.039 294.67 148.606 294.84 148.21C295.01 147.811 295.256 147.504 295.578 147.287C295.902 147.071 296.283 146.962 296.719 146.962C297.3 146.962 297.779 147.197 298.157 147.667V147.074H298.927V151.332C298.927 152.099 298.848 152.642 298.69 152.96C298.536 153.282 298.288 153.535 297.948 153.721C297.611 153.906 297.195 153.999 296.7 153.999C296.113 153.999 295.638 153.866 295.276 153.6C294.914 153.337 294.74 152.94 294.752 152.408ZM295.443 149.449C295.443 150.095 295.571 150.567 295.828 150.864C296.085 151.16 296.406 151.309 296.793 151.309C297.176 151.309 297.498 151.162 297.758 150.868C298.018 150.571 298.147 150.107 298.147 149.477C298.147 148.874 298.013 148.419 297.744 148.113C297.478 147.807 297.156 147.654 296.779 147.654C296.408 147.654 296.093 147.805 295.833 148.108C295.573 148.408 295.443 148.855 295.443 149.449ZM303.565 150.414L304.428 150.52C304.292 151.024 304.04 151.416 303.672 151.694C303.304 151.972 302.834 152.111 302.262 152.111C301.541 152.111 300.969 151.89 300.546 151.448C300.125 151.003 299.915 150.38 299.915 149.579C299.915 148.75 300.128 148.107 300.555 147.649C300.982 147.191 301.535 146.962 302.216 146.962C302.874 146.962 303.412 147.187 303.83 147.635C304.247 148.083 304.456 148.714 304.456 149.528C304.456 149.577 304.455 149.651 304.451 149.75H300.778C300.809 150.291 300.962 150.706 301.237 150.993C301.512 151.281 301.855 151.425 302.267 151.425C302.573 151.425 302.834 151.344 303.051 151.184C303.267 151.023 303.439 150.766 303.565 150.414ZM300.824 149.064H303.575C303.538 148.649 303.432 148.339 303.259 148.131C302.993 147.81 302.649 147.649 302.225 147.649C301.841 147.649 301.518 147.777 301.255 148.034C300.996 148.291 300.852 148.634 300.824 149.064Z" fill="white"/>
</g>
<g filter="url(#filter23_d)">
<path d="M278.076 185V178.2H280.627C281.147 178.2 281.563 178.269 281.875 178.408C282.19 178.545 282.436 178.756 282.613 179.044C282.792 179.328 282.882 179.627 282.882 179.939C282.882 180.23 282.803 180.504 282.645 180.76C282.487 181.017 282.249 181.224 281.931 181.382C282.342 181.502 282.657 181.708 282.877 181.999C283.1 182.289 283.211 182.633 283.211 183.029C283.211 183.347 283.143 183.644 283.007 183.919C282.874 184.191 282.708 184.402 282.51 184.55C282.313 184.698 282.064 184.811 281.764 184.889C281.467 184.963 281.102 185 280.669 185H278.076ZM278.976 181.057H280.446C280.845 181.057 281.131 181.031 281.304 180.978C281.533 180.91 281.705 180.797 281.819 180.64C281.937 180.482 281.996 180.284 281.996 180.046C281.996 179.82 281.941 179.622 281.833 179.452C281.725 179.279 281.57 179.161 281.369 179.1C281.168 179.035 280.824 179.002 280.335 179.002H278.976V181.057ZM278.976 184.198H280.669C280.96 184.198 281.164 184.187 281.281 184.165C281.488 184.128 281.662 184.066 281.801 183.979C281.94 183.893 282.054 183.768 282.144 183.604C282.234 183.437 282.279 183.245 282.279 183.029C282.279 182.775 282.214 182.555 282.084 182.37C281.954 182.181 281.773 182.05 281.541 181.976C281.312 181.898 280.981 181.86 280.548 181.86H278.976V184.198ZM284.324 185V178.2H285.159V185H284.324ZM289.673 184.392C289.363 184.655 289.065 184.841 288.777 184.949C288.493 185.057 288.187 185.111 287.859 185.111C287.318 185.111 286.902 184.98 286.611 184.717C286.32 184.451 286.175 184.112 286.175 183.701C286.175 183.46 286.229 183.24 286.337 183.042C286.449 182.841 286.593 182.681 286.769 182.56C286.948 182.439 287.149 182.348 287.372 182.286C287.536 182.243 287.783 182.201 288.114 182.161C288.788 182.081 289.285 181.985 289.603 181.874C289.606 181.759 289.608 181.686 289.608 181.656C289.608 181.315 289.529 181.076 289.371 180.937C289.158 180.748 288.841 180.654 288.42 180.654C288.027 180.654 287.737 180.723 287.548 180.862C287.363 180.998 287.225 181.241 287.135 181.591L286.319 181.479C286.393 181.13 286.515 180.848 286.685 180.635C286.855 180.419 287.101 180.253 287.423 180.139C287.744 180.021 288.117 179.962 288.541 179.962C288.961 179.962 289.303 180.012 289.566 180.111C289.829 180.21 290.022 180.335 290.146 180.487C290.269 180.635 290.356 180.824 290.406 181.052C290.433 181.195 290.447 181.451 290.447 181.823V182.936C290.447 183.712 290.464 184.204 290.498 184.411C290.535 184.615 290.607 184.811 290.712 185H289.84C289.753 184.827 289.697 184.624 289.673 184.392ZM289.603 182.528C289.3 182.651 288.845 182.756 288.239 182.843C287.896 182.892 287.653 182.948 287.511 183.01C287.369 183.072 287.259 183.163 287.182 183.284C287.104 183.401 287.066 183.533 287.066 183.678C287.066 183.901 287.149 184.086 287.316 184.235C287.486 184.383 287.734 184.457 288.058 184.457C288.38 184.457 288.666 184.388 288.917 184.249C289.167 184.106 289.351 183.913 289.469 183.669C289.558 183.48 289.603 183.202 289.603 182.834V182.528ZM294.961 183.196L295.782 183.302C295.692 183.868 295.462 184.312 295.091 184.634C294.723 184.952 294.27 185.111 293.731 185.111C293.057 185.111 292.515 184.892 292.103 184.453C291.695 184.01 291.491 183.378 291.491 182.555C291.491 182.024 291.579 181.558 291.755 181.159C291.932 180.76 292.199 180.462 292.558 180.264C292.92 180.063 293.312 179.962 293.736 179.962C294.271 179.962 294.709 180.098 295.049 180.371C295.389 180.64 295.607 181.023 295.703 181.521L294.891 181.646C294.814 181.315 294.676 181.066 294.478 180.899C294.283 180.732 294.047 180.649 293.769 180.649C293.348 180.649 293.006 180.8 292.743 181.104C292.481 181.403 292.349 181.88 292.349 182.532C292.349 183.194 292.476 183.675 292.729 183.975C292.983 184.275 293.314 184.425 293.722 184.425C294.05 184.425 294.324 184.324 294.543 184.123C294.763 183.922 294.902 183.613 294.961 183.196ZM296.501 185V178.2H297.336V182.078L299.312 180.074H300.393L298.509 181.901L300.583 185H299.553L297.925 182.481L297.336 183.047V185H296.501Z" fill="white"/>
</g>
<g filter="url(#filter24_d)">
<path d="M277.542 215.815L278.391 215.741C278.432 216.081 278.524 216.361 278.67 216.581C278.818 216.797 279.047 216.973 279.356 217.109C279.665 217.242 280.013 217.309 280.4 217.309C280.743 217.309 281.046 217.258 281.309 217.156C281.572 217.054 281.767 216.915 281.894 216.738C282.023 216.559 282.088 216.364 282.088 216.154C282.088 215.94 282.027 215.755 281.903 215.597C281.779 215.436 281.575 215.302 281.291 215.194C281.108 215.122 280.705 215.013 280.08 214.864C279.455 214.713 279.018 214.57 278.767 214.438C278.442 214.267 278.2 214.057 278.039 213.807C277.881 213.553 277.802 213.27 277.802 212.958C277.802 212.615 277.9 212.294 278.094 211.998C278.289 211.698 278.574 211.47 278.948 211.316C279.322 211.161 279.738 211.084 280.196 211.084C280.7 211.084 281.144 211.166 281.527 211.33C281.914 211.49 282.211 211.729 282.418 212.044C282.625 212.359 282.736 212.717 282.752 213.115L281.889 213.18C281.843 212.751 281.685 212.426 281.416 212.206C281.15 211.987 280.756 211.877 280.233 211.877C279.689 211.877 279.291 211.977 279.041 212.178C278.793 212.376 278.67 212.616 278.67 212.897C278.67 213.142 278.758 213.343 278.934 213.5C279.107 213.658 279.559 213.821 280.289 213.988C281.021 214.151 281.524 214.295 281.796 214.419C282.192 214.601 282.484 214.833 282.673 215.115C282.861 215.393 282.956 215.715 282.956 216.08C282.956 216.441 282.852 216.783 282.645 217.105C282.438 217.423 282.139 217.672 281.75 217.852C281.363 218.028 280.927 218.116 280.442 218.116C279.826 218.116 279.31 218.026 278.892 217.847C278.478 217.668 278.152 217.399 277.914 217.04C277.679 216.678 277.555 216.27 277.542 215.815ZM284.083 212.16V211.2H284.918V212.16H284.083ZM284.083 218V213.074H284.918V218H284.083ZM286.175 218V211.2H287.01V218H286.175ZM289.677 218L287.803 213.074H288.685L289.742 216.024C289.857 216.342 289.962 216.673 290.058 217.017C290.132 216.757 290.235 216.444 290.368 216.08L291.463 213.074H292.321L290.457 218H289.677ZM296.431 216.414L297.294 216.52C297.158 217.024 296.906 217.416 296.538 217.694C296.17 217.972 295.7 218.111 295.128 218.111C294.407 218.111 293.835 217.89 293.411 217.448C292.991 217.003 292.781 216.38 292.781 215.579C292.781 214.75 292.994 214.107 293.421 213.649C293.847 213.191 294.401 212.962 295.081 212.962C295.74 212.962 296.278 213.187 296.696 213.635C297.113 214.083 297.322 214.714 297.322 215.528C297.322 215.577 297.32 215.651 297.317 215.75H293.643C293.674 216.291 293.827 216.706 294.103 216.993C294.378 217.281 294.721 217.425 295.132 217.425C295.438 217.425 295.7 217.344 295.916 217.184C296.133 217.023 296.304 216.766 296.431 216.414ZM293.69 215.064H296.44C296.403 214.649 296.298 214.339 296.125 214.131C295.859 213.81 295.514 213.649 295.091 213.649C294.707 213.649 294.384 213.777 294.121 214.034C293.861 214.291 293.718 214.634 293.69 215.064ZM298.338 218V213.074H299.089V213.821C299.281 213.471 299.457 213.241 299.618 213.129C299.782 213.018 299.961 212.962 300.156 212.962C300.437 212.962 300.723 213.052 301.014 213.231L300.727 214.006C300.522 213.885 300.318 213.825 300.114 213.825C299.932 213.825 299.768 213.881 299.623 213.992C299.477 214.1 299.374 214.252 299.312 214.447C299.219 214.744 299.173 215.068 299.173 215.421V218H298.338Z" fill="white"/>
</g>
<g filter="url(#filter25_d)">
<path d="M276.725 268V261.2H279.276C279.796 261.2 280.212 261.269 280.524 261.408C280.84 261.545 281.085 261.756 281.262 262.044C281.441 262.328 281.531 262.627 281.531 262.939C281.531 263.23 281.452 263.504 281.294 263.76C281.136 264.017 280.898 264.224 280.58 264.382C280.991 264.502 281.307 264.708 281.526 264.999C281.749 265.289 281.86 265.633 281.86 266.029C281.86 266.347 281.792 266.644 281.656 266.919C281.523 267.191 281.358 267.402 281.16 267.55C280.962 267.698 280.713 267.811 280.413 267.889C280.116 267.963 279.751 268 279.318 268H276.725ZM277.625 264.057H279.095C279.494 264.057 279.78 264.031 279.954 263.978C280.182 263.91 280.354 263.797 280.469 263.64C280.586 263.482 280.645 263.284 280.645 263.046C280.645 262.82 280.591 262.622 280.482 262.452C280.374 262.279 280.22 262.161 280.019 262.1C279.818 262.035 279.473 262.002 278.984 262.002H277.625V264.057ZM277.625 267.198H279.318C279.609 267.198 279.813 267.187 279.93 267.165C280.138 267.128 280.311 267.066 280.45 266.979C280.589 266.893 280.704 266.768 280.793 266.604C280.883 266.437 280.928 266.245 280.928 266.029C280.928 265.775 280.863 265.555 280.733 265.37C280.603 265.181 280.422 265.05 280.19 264.976C279.961 264.898 279.63 264.86 279.198 264.86H277.625V267.198ZM282.983 268V263.074H283.734V263.821C283.926 263.471 284.102 263.241 284.263 263.129C284.427 263.018 284.606 262.962 284.801 262.962C285.082 262.962 285.368 263.052 285.659 263.231L285.372 264.006C285.167 263.885 284.963 263.825 284.759 263.825C284.577 263.825 284.413 263.881 284.268 263.992C284.122 264.1 284.019 264.252 283.957 264.447C283.864 264.744 283.818 265.068 283.818 265.421V268H282.983ZM285.845 265.537C285.845 264.625 286.098 263.949 286.605 263.51C287.029 263.145 287.546 262.962 288.155 262.962C288.832 262.962 289.386 263.185 289.815 263.63C290.245 264.073 290.46 264.685 290.46 265.467C290.46 266.101 290.364 266.601 290.173 266.966C289.984 267.327 289.707 267.609 289.342 267.81C288.98 268.011 288.585 268.111 288.155 268.111C287.465 268.111 286.907 267.89 286.48 267.448C286.057 267.006 285.845 266.369 285.845 265.537ZM286.703 265.537C286.703 266.168 286.84 266.641 287.116 266.956C287.391 267.269 287.737 267.425 288.155 267.425C288.569 267.425 288.914 267.267 289.189 266.952C289.464 266.636 289.602 266.155 289.602 265.509C289.602 264.9 289.463 264.439 289.185 264.127C288.909 263.811 288.566 263.654 288.155 263.654C287.737 263.654 287.391 263.81 287.116 264.122C286.84 264.434 286.703 264.906 286.703 265.537ZM292.353 268L290.845 263.074H291.708L292.492 265.917L292.784 266.975C292.797 266.922 292.882 266.584 293.039 265.959L293.823 263.074H294.681L295.419 265.931L295.665 266.873L295.948 265.922L296.792 263.074H297.604L296.064 268H295.196L294.412 265.05L294.222 264.21L293.225 268H292.353ZM298.309 268V263.074H299.06V263.774C299.422 263.233 299.945 262.962 300.628 262.962C300.925 262.962 301.197 263.017 301.445 263.125C301.695 263.23 301.882 263.369 302.006 263.542C302.13 263.715 302.216 263.921 302.266 264.159C302.297 264.314 302.312 264.584 302.312 264.971V268H301.477V265.003C301.477 264.663 301.445 264.41 301.38 264.243C301.315 264.073 301.199 263.938 301.032 263.839C300.868 263.737 300.675 263.686 300.452 263.686C300.096 263.686 299.789 263.799 299.529 264.025C299.272 264.25 299.144 264.679 299.144 265.31V268H298.309Z" fill="white"/>
</g>
<defs>
<filter id="filter0_di" x="10" y="226" width="17" height="49" filterUnits="userSpaceOnUse" color-interpolation-filters="sRGB">
<feFlood flood-opacity="0" result="BackgroundImageFix"/>
<feColorMatrix in="SourceAlpha" type="matrix" values="0 0 0 0 0 0 0 0 0 0 0 0 0 0 0 0 0 0 127 0"/>
<feOffset dy="4"/>
<feGaussianBlur stdDeviation="2"/>
<feColorMatrix type="matrix" values="0 0 0 0 0 0 0 0 0 0 0 0 0 0 0 0 0 0 0.25 0"/>
<feBlend mode="normal" in2="BackgroundImageFix" result="effect1_dropShadow"/>
<feBlend mode="normal" in="SourceGraphic" in2="effect1_dropShadow" result="shape"/>
<feColorMatrix in="SourceAlpha" type="matrix" values="0 0 0 0 0 0 0 0 0 0 0 0 0 0 0 0 0 0 127 0" result="hardAlpha"/>
<feOffset dy="2"/>
<feGaussianBlur stdDeviation="0.5"/>
<feComposite in2="hardAlpha" operator="arithmetic" k2="-1" k3="1"/>
<feColorMatrix type="matrix" values="0 0 0 0 1 0 0 0 0 1 0 0 0 0 1 0 0 0 0.25 0"/>
<feBlend mode="normal" in2="shape" result="effect2_innerShadow"/>
</filter>
<filter id="filter1_di" x="109" y="226" width="17" height="49" filterUnits="userSpaceOnUse" color-interpolation-filters="sRGB">
<feFlood flood-opacity="0" result="BackgroundImageFix"/>
<feColorMatrix in="SourceAlpha" type="matrix" values="0 0 0 0 0 0 0 0 0 0 0 0 0 0 0 0 0 0 127 0"/>
<feOffset dy="4"/>
<feGaussianBlur stdDeviation="2"/>
<feColorMatrix type="matrix" values="0 0 0 0 0 0 0 0 0 0 0 0 0 0 0 0 0 0 0.25 0"/>
<feBlend mode="normal" in2="BackgroundImageFix" result="effect1_dropShadow"/>
<feBlend mode="normal" in="SourceGraphic" in2="effect1_dropShadow" result="shape"/>
<feColorMatrix in="SourceAlpha" type="matrix" values="0 0 0 0 0 0 0 0 0 0 0 0 0 0 0 0 0 0 127 0" result="hardAlpha"/>
<feOffset dy="2"/>
<feGaussianBlur stdDeviation="0.5"/>
<feComposite in2="hardAlpha" operator="arithmetic" k2="-1" k3="1"/>
<feColorMatrix type="matrix" values="0 0 0 0 1 0 0 0 0 1 0 0 0 0 1 0 0 0 0.25 0"/>
<feBlend mode="normal" in2="shape" result="effect2_innerShadow"/>
</filter>
<filter id="filter2_di" x="0" y="94" width="139" height="150.667" filterUnits="userSpaceOnUse" color-interpolation-filters="sRGB">
<feFlood flood-opacity="0" result="BackgroundImageFix"/>
<feColorMatrix in="SourceAlpha" type="matrix" values="0 0 0 0 0 0 0 0 0 0 0 0 0 0 0 0 0 0 127 0"/>
<feOffset dx="2" dy="2"/>
<feGaussianBlur stdDeviation="5"/>
<feColorMatrix type="matrix" values="0 0 0 0 0 0 0 0 0 0 0 0 0 0 0 0 0 0 0.5 0"/>
<feBlend mode="normal" in2="BackgroundImageFix" result="effect1_dropShadow"/>
<feBlend mode="normal" in="SourceGraphic" in2="effect1_dropShadow" result="shape"/>
<feColorMatrix in="SourceAlpha" type="matrix" values="0 0 0 0 0 0 0 0 0 0 0 0 0 0 0 0 0 0 127 0" result="hardAlpha"/>
<feOffset dx="2" dy="5"/>
<feGaussianBlur stdDeviation="2"/>
<feComposite in2="hardAlpha" operator="arithmetic" k2="-1" k3="1"/>
<feColorMatrix type="matrix" values="0 0 0 0 1 0 0 0 0 1 0 0 0 0 1 0 0 0 0.4 0"/>
<feBlend mode="normal" in2="shape" result="effect2_innerShadow"/>
</filter>
<filter id="filter3_d" x="31.2031" y="147.438" width="76.2168" height="25.9287" filterUnits="userSpaceOnUse" color-interpolation-filters="sRGB">
<feFlood flood-opacity="0" result="BackgroundImageFix"/>
<feColorMatrix in="SourceAlpha" type="matrix" values="0 0 0 0 0 0 0 0 0 0 0 0 0 0 0 0 0 0 127 0"/>
<feOffset dx="2" dy="2"/>
<feGaussianBlur stdDeviation="1"/>
<feColorMatrix type="matrix" values="0 0 0 0 0 0 0 0 0 0 0 0 0 0 0 0 0 0 0.2 0"/>
<feBlend mode="normal" in2="BackgroundImageFix" result="effect1_dropShadow"/>
<feBlend mode="normal" in="SourceGraphic" in2="effect1_dropShadow" result="shape"/>
</filter>
<filter id="filter4_ii" x="234" y="-2" width="112" height="384" filterUnits="userSpaceOnUse" color-interpolation-filters="sRGB">
<feFlood flood-opacity="0" result="BackgroundImageFix"/>
<feBlend mode="normal" in="SourceGraphic" in2="BackgroundImageFix" result="shape"/>
<feColorMatrix in="SourceAlpha" type="matrix" values="0 0 0 0 0 0 0 0 0 0 0 0 0 0 0 0 0 0 127 0" result="hardAlpha"/>
<feOffset dx="4" dy="4"/>
<feGaussianBlur stdDeviation="2"/>
<feComposite in2="hardAlpha" operator="arithmetic" k2="-1" k3="1"/>
<feColorMatrix type="matrix" values="0 0 0 0 0 0 0 0 0 0 0 0 0 0 0 0 0 0 0.25 0"/>
<feBlend mode="normal" in2="shape" result="effect1_innerShadow"/>
<feColorMatrix in="SourceAlpha" type="matrix" values="0 0 0 0 0 0 0 0 0 0 0 0 0 0 0 0 0 0 127 0" result="hardAlpha"/>
<feOffset dx="-2" dy="-2"/>
<feGaussianBlur stdDeviation="1"/>
<feComposite in2="hardAlpha" operator="arithmetic" k2="-1" k3="1"/>
<feColorMatrix type="matrix" values="0 0 0 0 1 0 0 0 0 1 0 0 0 0 1 0 0 0 0.25 0"/>
<feBlend mode="normal" in2="effect1_innerShadow" result="effect2_innerShadow"/>
</filter>
<filter id="filter5_di" x="250" y="103" width="78" height="28" filterUnits="userSpaceOnUse" color-interpolation-filters="sRGB">
<feFlood flood-opacity="0" result="BackgroundImageFix"/>
<feColorMatrix in="SourceAlpha" type="matrix" values="0 0 0 0 0 0 0 0 0 0 0 0 0 0 0 0 0 0 127 0"/>
<feMorphology radius="1" operator="dilate" in="SourceAlpha" result="effect1_dropShadow"/>
<feOffset dy="2"/>
<feGaussianBlur stdDeviation="2"/>
<feColorMatrix type="matrix" values="0 0 0 0 0 0 0 0 0 0 0 0 0 0 0 0 0 0 0.35 0"/>
<feBlend mode="normal" in2="BackgroundImageFix" result="effect1_dropShadow"/>
<feBlend mode="normal" in="SourceGraphic" in2="effect1_dropShadow" result="shape"/>
<feColorMatrix in="SourceAlpha" type="matrix" values="0 0 0 0 0 0 0 0 0 0 0 0 0 0 0 0 0 0 127 0" result="hardAlpha"/>
<feOffset dy="0.5"/>
<feGaussianBlur stdDeviation="0.5"/>
<feComposite in2="hardAlpha" operator="arithmetic" k2="-1" k3="1"/>
<feColorMatrix type="matrix" values="0 0 0 0 1 0 0 0 0 1 0 0 0 0 1 0 0 0 0.25 0"/>
<feBlend mode="normal" in2="shape" result="effect2_innerShadow"/>
</filter>
<filter id="filter6_di" x="250" y="136" width="78" height="28" filterUnits="userSpaceOnUse" color-interpolation-filters="sRGB">
<feFlood flood-opacity="0" result="BackgroundImageFix"/>
<feColorMatrix in="SourceAlpha" type="matrix" values="0 0 0 0 0 0 0 0 0 0 0 0 0 0 0 0 0 0 127 0"/>
<feMorphology radius="1" operator="dilate" in="SourceAlpha" result="effect1_dropShadow"/>
<feOffset dy="2"/>
<feGaussianBlur stdDeviation="2"/>
<feColorMatrix type="matrix" values="0 0 0 0 0 0 0 0 0 0 0 0 0 0 0 0 0 0 0.35 0"/>
<feBlend mode="normal" in2="BackgroundImageFix" result="effect1_dropShadow"/>
<feBlend mode="normal" in="SourceGraphic" in2="effect1_dropShadow" result="shape"/>
<feColorMatrix in="SourceAlpha" type="matrix" values="0 0 0 0 0 0 0 0 0 0 0 0 0 0 0 0 0 0 127 0" result="hardAlpha"/>
<feOffset dy="0.5"/>
<feGaussianBlur stdDeviation="0.5"/>
<feComposite in2="hardAlpha" operator="arithmetic" k2="-1" k3="1"/>
<feColorMatrix type="matrix" values="0 0 0 0 1 0 0 0 0 1 0 0 0 0 1 0 0 0 0.25 0"/>
<feBlend mode="normal" in2="shape" result="effect2_innerShadow"/>
</filter>
<filter id="filter7_di" x="250" y="202" width="78" height="28" filterUnits="userSpaceOnUse" color-interpolation-filters="sRGB">
<feFlood flood-opacity="0" result="BackgroundImageFix"/>
<feColorMatrix in="SourceAlpha" type="matrix" values="0 0 0 0 0 0 0 0 0 0 0 0 0 0 0 0 0 0 127 0"/>
<feMorphology radius="1" operator="dilate" in="SourceAlpha" result="effect1_dropShadow"/>
<feOffset dy="2"/>
<feGaussianBlur stdDeviation="2"/>
<feColorMatrix type="matrix" values="0 0 0 0 0 0 0 0 0 0 0 0 0 0 0 0 0 0 0.35 0"/>
<feBlend mode="normal" in2="BackgroundImageFix" result="effect1_dropShadow"/>
<feBlend mode="normal" in="SourceGraphic" in2="effect1_dropShadow" result="shape"/>
<feColorMatrix in="SourceAlpha" type="matrix" values="0 0 0 0 0 0 0 0 0 0 0 0 0 0 0 0 0 0 127 0" result="hardAlpha"/>
<feOffset dy="0.5"/>
<feGaussianBlur stdDeviation="0.5"/>
<feComposite in2="hardAlpha" operator="arithmetic" k2="-1" k3="1"/>
<feColorMatrix type="matrix" values="0 0 0 0 1 0 0 0 0 1 0 0 0 0 1 0 0 0 0.25 0"/>
<feBlend mode="normal" in2="shape" result="effect2_innerShadow"/>
</filter>
<filter id="filter8_di" x="250" y="252" width="78" height="28" filterUnits="userSpaceOnUse" color-interpolation-filters="sRGB">
<feFlood flood-opacity="0" result="BackgroundImageFix"/>
<feColorMatrix in="SourceAlpha" type="matrix" values="0 0 0 0 0 0 0 0 0 0 0 0 0 0 0 0 0 0 127 0"/>
<feMorphology radius="1" operator="dilate" in="SourceAlpha" result="effect1_dropShadow"/>
<feOffset dy="2"/>
<feGaussianBlur stdDeviation="2"/>
<feColorMatrix type="matrix" values="0 0 0 0 0 0 0 0 0 0 0 0 0 0 0 0 0 0 0.35 0"/>
<feBlend mode="normal" in2="BackgroundImageFix" result="effect1_dropShadow"/>
<feBlend mode="normal" in="SourceGraphic" in2="effect1_dropShadow" result="shape"/>
<feColorMatrix in="SourceAlpha" type="matrix" values="0 0 0 0 0 0 0 0 0 0 0 0 0 0 0 0 0 0 127 0" result="hardAlpha"/>
<feOffset dy="0.5"/>
<feGaussianBlur stdDeviation="0.5"/>
<feComposite in2="hardAlpha" operator="arithmetic" k2="-1" k3="1"/>
<feColorMatrix type="matrix" values="0 0 0 0 1 0 0 0 0 1 0 0 0 0 1 0 0 0 0.25 0"/>
<feBlend mode="normal" in2="shape" result="effect2_innerShadow"/>
</filter>
<filter id="filter9_di" x="250" y="169" width="78" height="28" filterUnits="userSpaceOnUse" color-interpolation-filters="sRGB">
<feFlood flood-opacity="0" result="BackgroundImageFix"/>
<feColorMatrix in="SourceAlpha" type="matrix" values="0 0 0 0 0 0 0 0 0 0 0 0 0 0 0 0 0 0 127 0"/>
<feMorphology radius="1" operator="dilate" in="SourceAlpha" result="effect1_dropShadow"/>
<feOffset dy="2"/>
<feGaussianBlur stdDeviation="2"/>
<feColorMatrix type="matrix" values="0 0 0 0 0 0 0 0 0 0 0 0 0 0 0 0 0 0 0.35 0"/>
<feBlend mode="normal" in2="BackgroundImageFix" result="effect1_dropShadow"/>
<feBlend mode="normal" in="SourceGraphic" in2="effect1_dropShadow" result="shape"/>
<feColorMatrix in="SourceAlpha" type="matrix" values="0 0 0 0 0 0 0 0 0 0 0 0 0 0 0 0 0 0 127 0" result="hardAlpha"/>
<feOffset dy="0.5"/>
<feGaussianBlur stdDeviation="0.5"/>
<feComposite in2="hardAlpha" operator="arithmetic" k2="-1" k3="1"/>
<feColorMatrix type="matrix" values="0 0 0 0 1 0 0 0 0 1 0 0 0 0 1 0 0 0 0.25 0"/>
<feBlend mode="normal" in2="shape" result="effect2_innerShadow"/>
</filter>
<filter id="filter10_d" x="279.026" y="111.2" width="20.0034" height="10.9116" filterUnits="userSpaceOnUse" color-interpolation-filters="sRGB">
<feFlood flood-opacity="0" result="BackgroundImageFix"/>
<feColorMatrix in="SourceAlpha" type="matrix" values="0 0 0 0 0 0 0 0 0 0 0 0 0 0 0 0 0 0 127 0"/>
<feOffset dy="1"/>
<feGaussianBlur stdDeviation="1"/>
<feColorMatrix type="matrix" values="0 0 0 0 0 0 0 0 0 0 0 0 0 0 0 0 0 0 0.75 0"/>
<feBlend mode="normal" in2="BackgroundImageFix" result="effect1_dropShadow"/>
<feBlend mode="normal" in="SourceGraphic" in2="effect1_dropShadow" result="shape"/>
</filter>
<filter id="filter11_d" x="271.604" y="144.079" width="34.8518" height="12.9202" filterUnits="userSpaceOnUse" color-interpolation-filters="sRGB">
<feFlood flood-opacity="0" result="BackgroundImageFix"/>
<feColorMatrix in="SourceAlpha" type="matrix" values="0 0 0 0 0 0 0 0 0 0 0 0 0 0 0 0 0 0 127 0"/>
<feOffset dy="1"/>
<feGaussianBlur stdDeviation="1"/>
<feColorMatrix type="matrix" values="0 0 0 0 0 0 0 0 0 0 0 0 0 0 0 0 0 0 0.75 0"/>
<feBlend mode="normal" in2="BackgroundImageFix" result="effect1_dropShadow"/>
<feBlend mode="normal" in="SourceGraphic" in2="effect1_dropShadow" result="shape"/>
</filter>
<filter id="filter12_d" x="276.076" y="177.2" width="26.5068" height="10.9116" filterUnits="userSpaceOnUse" color-interpolation-filters="sRGB">
<feFlood flood-opacity="0" result="BackgroundImageFix"/>
<feColorMatrix in="SourceAlpha" type="matrix" values="0 0 0 0 0 0 0 0 0 0 0 0 0 0 0 0 0 0 127 0"/>
<feOffset dy="1"/>
<feGaussianBlur stdDeviation="1"/>
<feColorMatrix type="matrix" values="0 0 0 0 0 0 0 0 0 0 0 0 0 0 0 0 0 0 0.75 0"/>
<feBlend mode="normal" in2="BackgroundImageFix" result="effect1_dropShadow"/>
<feBlend mode="normal" in="SourceGraphic" in2="effect1_dropShadow" result="shape"/>
</filter>
<filter id="filter13_d" x="275.542" y="210.084" width="27.4717" height="11.0322" filterUnits="userSpaceOnUse" color-interpolation-filters="sRGB">
<feFlood flood-opacity="0" result="BackgroundImageFix"/>
<feColorMatrix in="SourceAlpha" type="matrix" values="0 0 0 0 0 0 0 0 0 0 0 0 0 0 0 0 0 0 127 0"/>
<feOffset dy="1"/>
<feGaussianBlur stdDeviation="1"/>
<feColorMatrix type="matrix" values="0 0 0 0 0 0 0 0 0 0 0 0 0 0 0 0 0 0 0.75 0"/>
<feBlend mode="normal" in2="BackgroundImageFix" result="effect1_dropShadow"/>
<feBlend mode="normal" in="SourceGraphic" in2="effect1_dropShadow" result="shape"/>
</filter>
<filter id="filter14_d" x="274.725" y="260.2" width="29.5869" height="10.9116" filterUnits="userSpaceOnUse" color-interpolation-filters="sRGB">
<feFlood flood-opacity="0" result="BackgroundImageFix"/>
<feColorMatrix in="SourceAlpha" type="matrix" values="0 0 0 0 0 0 0 0 0 0 0 0 0 0 0 0 0 0 127 0"/>
<feOffset dy="1"/>
<feGaussianBlur stdDeviation="1"/>
<feColorMatrix type="matrix" values="0 0 0 0 0 0 0 0 0 0 0 0 0 0 0 0 0 0 0.75 0"/>
<feBlend mode="normal" in2="BackgroundImageFix" result="effect1_dropShadow"/>
<feBlend mode="normal" in="SourceGraphic" in2="effect1_dropShadow" result="shape"/>
</filter>
<filter id="filter15_ii" x="234" y="-2" width="112" height="384" filterUnits="userSpaceOnUse" color-interpolation-filters="sRGB">
<feFlood flood-opacity="0" result="BackgroundImageFix"/>
<feBlend mode="normal" in="SourceGraphic" in2="BackgroundImageFix" result="shape"/>
<feColorMatrix in="SourceAlpha" type="matrix" values="0 0 0 0 0 0 0 0 0 0 0 0 0 0 0 0 0 0 127 0" result="hardAlpha"/>
<feOffset dx="4" dy="4"/>
<feGaussianBlur stdDeviation="2"/>
<feComposite in2="hardAlpha" operator="arithmetic" k2="-1" k3="1"/>
<feColorMatrix type="matrix" values="0 0 0 0 0 0 0 0 0 0 0 0 0 0 0 0 0 0 0.25 0"/>
<feBlend mode="normal" in2="shape" result="effect1_innerShadow"/>
<feColorMatrix in="SourceAlpha" type="matrix" values="0 0 0 0 0 0 0 0 0 0 0 0 0 0 0 0 0 0 127 0" result="hardAlpha"/>
<feOffset dx="-2" dy="-2"/>
<feGaussianBlur stdDeviation="1"/>
<feComposite in2="hardAlpha" operator="arithmetic" k2="-1" k3="1"/>
<feColorMatrix type="matrix" values="0 0 0 0 1 0 0 0 0 1 0 0 0 0 1 0 0 0 0.25 0"/>
<feBlend mode="normal" in2="effect1_innerShadow" result="effect2_innerShadow"/>
</filter>
<filter id="filter16_di" x="250" y="103" width="78" height="28" filterUnits="userSpaceOnUse" color-interpolation-filters="sRGB">
<feFlood flood-opacity="0" result="BackgroundImageFix"/>
<feColorMatrix in="SourceAlpha" type="matrix" values="0 0 0 0 0 0 0 0 0 0 0 0 0 0 0 0 0 0 127 0"/>
<feMorphology radius="1" operator="dilate" in="SourceAlpha" result="effect1_dropShadow"/>
<feOffset dy="2"/>
<feGaussianBlur stdDeviation="2"/>
<feColorMatrix type="matrix" values="0 0 0 0 0 0 0 0 0 0 0 0 0 0 0 0 0 0 0.35 0"/>
<feBlend mode="normal" in2="BackgroundImageFix" result="effect1_dropShadow"/>
<feBlend mode="normal" in="SourceGraphic" in2="effect1_dropShadow" result="shape"/>
<feColorMatrix in="SourceAlpha" type="matrix" values="0 0 0 0 0 0 0 0 0 0 0 0 0 0 0 0 0 0 127 0" result="hardAlpha"/>
<feOffset dy="0.5"/>
<feGaussianBlur stdDeviation="0.5"/>
<feComposite in2="hardAlpha" operator="arithmetic" k2="-1" k3="1"/>
<feColorMatrix type="matrix" values="0 0 0 0 1 0 0 0 0 1 0 0 0 0 1 0 0 0 0.25 0"/>
<feBlend mode="normal" in2="shape" result="effect2_innerShadow"/>
</filter>
<filter id="filter17_di" x="250" y="136" width="78" height="28" filterUnits="userSpaceOnUse" color-interpolation-filters="sRGB">
<feFlood flood-opacity="0" result="BackgroundImageFix"/>
<feColorMatrix in="SourceAlpha" type="matrix" values="0 0 0 0 0 0 0 0 0 0 0 0 0 0 0 0 0 0 127 0"/>
<feMorphology radius="1" operator="dilate" in="SourceAlpha" result="effect1_dropShadow"/>
<feOffset dy="2"/>
<feGaussianBlur stdDeviation="2"/>
<feColorMatrix type="matrix" values="0 0 0 0 0 0 0 0 0 0 0 0 0 0 0 0 0 0 0.35 0"/>
<feBlend mode="normal" in2="BackgroundImageFix" result="effect1_dropShadow"/>
<feBlend mode="normal" in="SourceGraphic" in2="effect1_dropShadow" result="shape"/>
<feColorMatrix in="SourceAlpha" type="matrix" values="0 0 0 0 0 0 0 0 0 0 0 0 0 0 0 0 0 0 127 0" result="hardAlpha"/>
<feOffset dy="0.5"/>
<feGaussianBlur stdDeviation="0.5"/>
<feComposite in2="hardAlpha" operator="arithmetic" k2="-1" k3="1"/>
<feColorMatrix type="matrix" values="0 0 0 0 1 0 0 0 0 1 0 0 0 0 1 0 0 0 0.25 0"/>
<feBlend mode="normal" in2="shape" result="effect2_innerShadow"/>
</filter>
<filter id="filter18_di" x="250" y="202" width="78" height="28" filterUnits="userSpaceOnUse" color-interpolation-filters="sRGB">
<feFlood flood-opacity="0" result="BackgroundImageFix"/>
<feColorMatrix in="SourceAlpha" type="matrix" values="0 0 0 0 0 0 0 0 0 0 0 0 0 0 0 0 0 0 127 0"/>
<feMorphology radius="1" operator="dilate" in="SourceAlpha" result="effect1_dropShadow"/>
<feOffset dy="2"/>
<feGaussianBlur stdDeviation="2"/>
<feColorMatrix type="matrix" values="0 0 0 0 0 0 0 0 0 0 0 0 0 0 0 0 0 0 0.35 0"/>
<feBlend mode="normal" in2="BackgroundImageFix" result="effect1_dropShadow"/>
<feBlend mode="normal" in="SourceGraphic" in2="effect1_dropShadow" result="shape"/>
<feColorMatrix in="SourceAlpha" type="matrix" values="0 0 0 0 0 0 0 0 0 0 0 0 0 0 0 0 0 0 127 0" result="hardAlpha"/>
<feOffset dy="0.5"/>
<feGaussianBlur stdDeviation="0.5"/>
<feComposite in2="hardAlpha" operator="arithmetic" k2="-1" k3="1"/>
<feColorMatrix type="matrix" values="0 0 0 0 1 0 0 0 0 1 0 0 0 0 1 0 0 0 0.25 0"/>
<feBlend mode="normal" in2="shape" result="effect2_innerShadow"/>
</filter>
<filter id="filter19_di" x="250" y="252" width="78" height="28" filterUnits="userSpaceOnUse" color-interpolation-filters="sRGB">
<feFlood flood-opacity="0" result="BackgroundImageFix"/>
<feColorMatrix in="SourceAlpha" type="matrix" values="0 0 0 0 0 0 0 0 0 0 0 0 0 0 0 0 0 0 127 0"/>
<feMorphology radius="1" operator="dilate" in="SourceAlpha" result="effect1_dropShadow"/>
<feOffset dy="2"/>
<feGaussianBlur stdDeviation="2"/>
<feColorMatrix type="matrix" values="0 0 0 0 0 0 0 0 0 0 0 0 0 0 0 0 0 0 0.35 0"/>
<feBlend mode="normal" in2="BackgroundImageFix" result="effect1_dropShadow"/>
<feBlend mode="normal" in="SourceGraphic" in2="effect1_dropShadow" result="shape"/>
<feColorMatrix in="SourceAlpha" type="matrix" values="0 0 0 0 0 0 0 0 0 0 0 0 0 0 0 0 0 0 127 0" result="hardAlpha"/>
<feOffset dy="0.5"/>
<feGaussianBlur stdDeviation="0.5"/>
<feComposite in2="hardAlpha" operator="arithmetic" k2="-1" k3="1"/>
<feColorMatrix type="matrix" values="0 0 0 0 1 0 0 0 0 1 0 0 0 0 1 0 0 0 0.25 0"/>
<feBlend mode="normal" in2="shape" result="effect2_innerShadow"/>
</filter>
<filter id="filter20_di" x="250" y="169" width="78" height="28" filterUnits="userSpaceOnUse" color-interpolation-filters="sRGB">
<feFlood flood-opacity="0" result="BackgroundImageFix"/>
<feColorMatrix in="SourceAlpha" type="matrix" values="0 0 0 0 0 0 0 0 0 0 0 0 0 0 0 0 0 0 127 0"/>
<feMorphology radius="1" operator="dilate" in="SourceAlpha" result="effect1_dropShadow"/>
<feOffset dy="2"/>
<feGaussianBlur stdDeviation="2"/>
<feColorMatrix type="matrix" values="0 0 0 0 0 0 0 0 0 0 0 0 0 0 0 0 0 0 0.35 0"/>
<feBlend mode="normal" in2="BackgroundImageFix" result="effect1_dropShadow"/>
<feBlend mode="normal" in="SourceGraphic" in2="effect1_dropShadow" result="shape"/>
<feColorMatrix in="SourceAlpha" type="matrix" values="0 0 0 0 0 0 0 0 0 0 0 0 0 0 0 0 0 0 127 0" result="hardAlpha"/>
<feOffset dy="0.5"/>
<feGaussianBlur stdDeviation="0.5"/>
<feComposite in2="hardAlpha" operator="arithmetic" k2="-1" k3="1"/>
<feColorMatrix type="matrix" values="0 0 0 0 1 0 0 0 0 1 0 0 0 0 1 0 0 0 0.25 0"/>
<feBlend mode="normal" in2="shape" result="effect2_innerShadow"/>
</filter>
<filter id="filter21_d" x="279.026" y="111.2" width="20.0034" height="10.9116" filterUnits="userSpaceOnUse" color-interpolation-filters="sRGB">
<feFlood flood-opacity="0" result="BackgroundImageFix"/>
<feColorMatrix in="SourceAlpha" type="matrix" values="0 0 0 0 0 0 0 0 0 0 0 0 0 0 0 0 0 0 127 0"/>
<feOffset dy="1"/>
<feGaussianBlur stdDeviation="1"/>
<feColorMatrix type="matrix" values="0 0 0 0 0 0 0 0 0 0 0 0 0 0 0 0 0 0 0.75 0"/>
<feBlend mode="normal" in2="BackgroundImageFix" result="effect1_dropShadow"/>
<feBlend mode="normal" in="SourceGraphic" in2="effect1_dropShadow" result="shape"/>
</filter>
<filter id="filter22_d" x="271.604" y="144.079" width="34.8518" height="12.9202" filterUnits="userSpaceOnUse" color-interpolation-filters="sRGB">
<feFlood flood-opacity="0" result="BackgroundImageFix"/>
<feColorMatrix in="SourceAlpha" type="matrix" values="0 0 0 0 0 0 0 0 0 0 0 0 0 0 0 0 0 0 127 0"/>
<feOffset dy="1"/>
<feGaussianBlur stdDeviation="1"/>
<feColorMatrix type="matrix" values="0 0 0 0 0 0 0 0 0 0 0 0 0 0 0 0 0 0 0.75 0"/>
<feBlend mode="normal" in2="BackgroundImageFix" result="effect1_dropShadow"/>
<feBlend mode="normal" in="SourceGraphic" in2="effect1_dropShadow" result="shape"/>
</filter>
<filter id="filter23_d" x="276.076" y="177.2" width="26.5068" height="10.9116" filterUnits="userSpaceOnUse" color-interpolation-filters="sRGB">
<feFlood flood-opacity="0" result="BackgroundImageFix"/>
<feColorMatrix in="SourceAlpha" type="matrix" values="0 0 0 0 0 0 0 0 0 0 0 0 0 0 0 0 0 0 127 0"/>
<feOffset dy="1"/>
<feGaussianBlur stdDeviation="1"/>
<feColorMatrix type="matrix" values="0 0 0 0 0 0 0 0 0 0 0 0 0 0 0 0 0 0 0.75 0"/>
<feBlend mode="normal" in2="BackgroundImageFix" result="effect1_dropShadow"/>
<feBlend mode="normal" in="SourceGraphic" in2="effect1_dropShadow" result="shape"/>
</filter>
<filter id="filter24_d" x="275.542" y="210.084" width="27.4717" height="11.0322" filterUnits="userSpaceOnUse" color-interpolation-filters="sRGB">
<feFlood flood-opacity="0" result="BackgroundImageFix"/>
<feColorMatrix in="SourceAlpha" type="matrix" values="0 0 0 0 0 0 0 0 0 0 0 0 0 0 0 0 0 0 127 0"/>
<feOffset dy="1"/>
<feGaussianBlur stdDeviation="1"/>
<feColorMatrix type="matrix" values="0 0 0 0 0 0 0 0 0 0 0 0 0 0 0 0 0 0 0.75 0"/>
<feBlend mode="normal" in2="BackgroundImageFix" result="effect1_dropShadow"/>
<feBlend mode="normal" in="SourceGraphic" in2="effect1_dropShadow" result="shape"/>
</filter>
<filter id="filter25_d" x="274.725" y="260.2" width="29.5869" height="10.9116" filterUnits="userSpaceOnUse" color-interpolation-filters="sRGB">
<feFlood flood-opacity="0" result="BackgroundImageFix"/>
<feColorMatrix in="SourceAlpha" type="matrix" values="0 0 0 0 0 0 0 0 0 0 0 0 0 0 0 0 0 0 127 0"/>
<feOffset dy="1"/>
<feGaussianBlur stdDeviation="1"/>
<feColorMatrix type="matrix" values="0 0 0 0 0 0 0 0 0 0 0 0 0 0 0 0 0 0 0.75 0"/>
<feBlend mode="normal" in2="BackgroundImageFix" result="effect1_dropShadow"/>
<feBlend mode="normal" in="SourceGraphic" in2="effect1_dropShadow" result="shape"/>
</filter>
<linearGradient id="paint0_linear" x1="68" y1="102" x2="68" y2="250" gradientUnits="userSpaceOnUse">
<stop stop-color="#FE7B29"/>
<stop offset="1" stop-color="#CD5400"/>
</linearGradient>
</defs>
</svg>
