
<?xml version="1.0" standalone="no"?><svg xmlns="http://www.w3.org/2000/svg" viewBox="0 0 1440 320">

<path id="Waveform_Path" fill="url(#Gradient)" fill-opacity="1" 
d="M0,160L6.2,154.7C12.3,149,25,139,37,138.7C49.2,139,62,149,74,149.3C86.2,149,98,139,111,165.3C123.1,192,135,256,148,261.3C160,267,172,213,185,197.3C196.9,181,209,203,222,208C233.8,213,246,203,258,181.3C270.8,160,283,128,295,101.3C307.7,75,320,53,332,53.3C344.6,53,357,75,369,112C381.5,149,394,203,406,229.3C418.5,256,431,256,443,261.3C455.4,267,468,277,480,261.3C492.3,245,505,203,517,181.3C529.2,160,542,160,554,165.3C566.2,171,578,181,591,160C603.1,139,615,85,628,96C640,107,652,181,665,181.3C676.9,181,689,107,702,101.3C713.8,96,726,160,738,160C750.8,160,763,96,775,85.3C787.7,75,800,117,812,149.3C824.6,181,837,203,849,186.7C861.5,171,874,117,886,106.7C898.5,96,911,128,923,133.3C935.4,139,948,117,960,128C972.3,139,985,181,997,165.3C1009.2,149,1022,75,1034,80C1046.2,85,1058,171,1071,202.7C1083.1,235,1095,213,1108,208C1120,203,1132,213,1145,208C1156.9,203,1169,181,1182,176C1193.8,171,1206,181,1218,160C1230.8,139,1243,85,1255,85.3C1267.7,85,1280,139,1292,170.7C1304.6,203,1317,213,1329,224C1341.5,235,1354,245,1366,240C1378.5,235,1391,213,1403,218.7C1415.4,224,1428,256,1434,272L1440,288L1440,320L1433.8,320C1427.7,320,1415,320,1403,320C1390.8,320,1378,320,1366,320C1353.8,320,1342,320,1329,320C1316.9,320,1305,320,1292,320C1280,320,1268,320,1255,320C1243.1,320,1231,320,1218,320C1206.2,320,1194,320,1182,320C1169.2,320,1157,320,1145,320C1132.3,320,1120,320,1108,320C1095.4,320,1083,320,1071,320C1058.5,320,1046,320,1034,320C1021.5,320,1009,320,997,320C984.6,320,972,320,960,320C947.7,320,935,320,923,320C910.8,320,898,320,886,320C873.8,320,862,320,849,320C836.9,320,825,320,812,320C800,320,788,320,775,320C763.1,320,751,320,738,320C726.2,320,714,320,702,320C689.2,320,677,320,665,320C652.3,320,640,320,628,320C615.4,320,603,320,591,320C578.5,320,566,320,554,320C541.5,320,529,320,517,320C504.6,320,492,320,480,320C467.7,320,455,320,443,320C430.8,320,418,320,406,320C393.8,320,382,320,369,320C356.9,320,345,320,332,320C320,320,308,320,295,320C283.1,320,271,320,258,320C246.2,320,234,320,222,320C209.2,320,197,320,185,320C172.3,320,160,320,148,320C135.4,320,123,320,111,320C98.5,320,86,320,74,320C61.5,320,49,320,37,320C24.6,320,12,320,6,320L0,320Z"></path>

<defs>
<linearGradient id="Gradient" x1="0%" y1="100%" x2="0%" y2="0%">
  <stop offset="0%" style="stop-color:rgb(20,20,20); stop-opacity:0" />
  <stop offset="100%" style="stop-color:rgb(6,204,180,1); stop-opacity:0.7" />
</linearGradient>
</defs>
</svg>




